HIERARCHY
ROOT Pelvis
{
	OFFSET 0.000000 0.000000 0.000000
	CHANNELS 6 Xposition Yposition Zposition Xrotation Yrotation Zrotation
	JOINT LeftUpLeg_virtual
	{
		OFFSET 0.000000 0.000000 0.000000
		CHANNELS 3 Xrotation Yrotation Zrotation
		JOINT LeftUpLeg
		{
			OFFSET 18.735201 -5.666702 -4.541200
			CHANNELS 3 Xrotation Yrotation Zrotation
			JOINT LeftLeg
			{
				OFFSET -0.021200 -31.938179 0.493100
				CHANNELS 3 Xrotation Yrotation Zrotation
				JOINT LeftFoot
				{
					OFFSET 0.021200 -31.938179 -4.336299
					CHANNELS 3 Xrotation Yrotation Zrotation
					JOINT LeftToeBase
					{
						OFFSET 0.943001 -26.722000 15.023500
						CHANNELS 3 Xrotation Yrotation Zrotation
						End Site
						{
							OFFSET 0 0 0
						}
					}
				}
			}
		}
	}
	JOINT RightUpLeg_virtual
	{
		OFFSET 0.000000 0.000000 0.000000
		CHANNELS 3 Xrotation Yrotation Zrotation
		JOINT RightUpLeg
		{
			OFFSET -18.735201 -5.666702 -4.541200
			CHANNELS 3 Xrotation Yrotation Zrotation
			JOINT RightLeg
			{
				OFFSET 0.018946 -31.938133 0.493100
				CHANNELS 3 Xrotation Yrotation Zrotation
				JOINT RightFoot
				{
					OFFSET -0.018946 -31.938126 -4.336299
					CHANNELS 3 Xrotation Yrotation Zrotation
					JOINT RightToeBase
					{
						OFFSET -0.943001 -26.722004 15.023500
						CHANNELS 3 Xrotation Yrotation Zrotation
						End Site
						{
							OFFSET 0 0 0
						}
					}
				}
			}
		}
	}
	JOINT Hips_virtual
	{
		OFFSET 0.000000 0.000000 0.000000
		CHANNELS 3 Xrotation Yrotation Zrotation
		JOINT Hips
		{
			OFFSET -0.000000 -0.000000 -0.000000
			CHANNELS 3 Xrotation Yrotation Zrotation
			JOINT Spine
			{
				OFFSET 0.000000 10.199997 -0.299500
				CHANNELS 3 Xrotation Yrotation Zrotation
				JOINT Spine1
				{
					OFFSET 0.000000 11.900002 -1.516600
					CHANNELS 3 Xrotation Yrotation Zrotation
					JOINT Spine2
					{
						OFFSET 0.000000 13.600006 -2.842500
						CHANNELS 3 Xrotation Yrotation Zrotation
						JOINT Neck_virtual
						{
							OFFSET 0.000000 0.000000 0.000000
							CHANNELS 3 Xrotation Yrotation Zrotation
							JOINT Neck
							{
								OFFSET 0.000000 9.624100 -2.890100
								CHANNELS 3 Xrotation Yrotation Zrotation
								JOINT Head
								{
									OFFSET 0.000000 14.068802 -1.351900
									CHANNELS 3 Xrotation Yrotation Zrotation
									End Site
									{
										OFFSET 0 0 0
									}
								}
							}
						}
						JOINT LeftShoulder_virtual
						{
							OFFSET 0.000000 0.000000 0.000000
							CHANNELS 3 Xrotation Yrotation Zrotation
							JOINT LeftShoulder
							{
								OFFSET 15.263000 10.923401 -0.547700
								CHANNELS 3 Xrotation Yrotation Zrotation
								JOINT LeftArm
								{
									OFFSET 25.438599 -2.830597 -13.032500
									CHANNELS 3 Xrotation Yrotation Zrotation
									JOINT LeftForeArm
									{
										OFFSET 29.960503 0.000000 0.000000
										CHANNELS 3 Xrotation Yrotation Zrotation
										JOINT LeftHand
										{
											OFFSET 27.849251 0.000000 0.000000
											CHANNELS 3 Xrotation Yrotation Zrotation
											End Site
											{
												OFFSET 0 0 0
											}
										}
									}
								}
							}
						}
						JOINT RightShoulder_virtual
						{
							OFFSET 0.000000 0.000000 0.000000
							CHANNELS 3 Xrotation Yrotation Zrotation
							JOINT RightShoulder
							{
								OFFSET -15.263000 10.923401 -0.547700
								CHANNELS 3 Xrotation Yrotation Zrotation
								JOINT RightArm
								{
									OFFSET -25.438599 -2.830597 -13.032500
									CHANNELS 3 Xrotation Yrotation Zrotation
									JOINT RightForeArm
									{
										OFFSET -29.960503 0.000000 0.000000
										CHANNELS 3 Xrotation Yrotation Zrotation
										JOINT RightHand
										{
											OFFSET -27.849251 0.000000 0.000000
											CHANNELS 3 Xrotation Yrotation Zrotation
											End Site
											{
												OFFSET 0 0 0
											}
										}
									}
								}
							}
						}
					}
				}
			}
		}
	}
}
MOTION
Frames: 12
Frame Time: 0.03333333
-5.369427 91.046814 17.068069 0.000000 0.000000 0.000000 -30.118771 -48.092455 -17.990713 -6.357707 10.575898 8.383049 35.363950 -0.965632 -10.048960 -1.905548 3.556816 -1.933587 0.000000 0.000000 0.000000 -30.685236 -46.712248 -18.100374 14.900252 -1.776797 -12.671064 24.957103 -6.857728 3.174547 -21.693852 -15.753719 7.494858 0.000000 0.000000 0.000000 -29.967243 -46.751071 -17.568531 -0.871939 -0.038519 -0.004164 16.281083 -3.056006 0.012558 -2.144265 -1.773709 -0.297228 0.000000 0.000000 0.000000 -2.485144 -1.644162 0.240216 0.194078 -1.704978 -1.141008 0.000000 0.000000 0.000000 -2.637195 -2.074741 0.332721 0.766580 -9.974476 -15.281517 -18.805015 -16.959910 -30.388806 -11.871355 -63.712954 -12.480675 0.000000 0.000000 0.000000 -3.812268 -0.767874 -0.494478 2.539788 20.548961 18.190745 -6.714448 -4.098318 49.631713 9.926433 41.267381 -9.993528 0.000000 0.000000 0.000000 
-4.956401 91.150162 17.917097 0.000000 0.000000 0.000000 -31.592883 -50.275376 -20.273760 -5.316777 12.442375 8.884582 34.780293 -0.965690 -10.393805 -1.947063 4.811208 1.334820 0.000000 0.000000 0.000000 -32.168381 -48.908068 -20.346305 14.256103 -1.183130 -12.913881 24.626893 -6.721771 2.485093 -19.147843 -15.032995 8.258586 0.000000 0.000000 0.000000 -31.523796 -48.743905 -19.876399 -0.859326 -0.043858 -0.018203 16.295663 -3.156383 0.559296 -2.329799 -1.934907 -0.325209 0.000000 0.000000 0.000000 -2.315931 -1.716448 0.145993 0.143633 -1.709810 -1.129849 0.000000 0.000000 0.000000 -2.352718 -2.118113 0.350503 0.833388 -9.881890 -15.382515 -18.743893 -17.024653 -30.310945 -11.551442 -63.390986 -12.190904 0.000000 0.000000 0.000000 -4.136017 -0.863137 -0.568406 2.810042 20.621181 18.021311 -7.139828 -3.629973 50.098772 10.157471 40.610983 -10.276881 0.000000 0.000000 0.000000 
-4.491479 91.177475 18.675947 0.000000 0.000000 0.000000 -33.340500 -52.334603 -22.827401 -4.284404 13.841940 9.371283 34.023833 -1.237658 -10.651027 -2.559884 5.888450 3.525293 0.000000 0.000000 0.000000 -34.003192 -51.030628 -22.907312 13.335791 -0.432970 -12.875289 25.071702 -6.990572 1.743898 -15.894559 -14.871180 8.055420 0.000000 0.000000 0.000000 -33.242237 -50.631718 -22.371764 -0.843678 -0.038710 -0.037904 16.274980 -3.231615 1.148672 -2.476487 -2.076663 -0.331039 0.000000 0.000000 0.000000 -2.135954 -1.763222 0.047924 0.053829 -1.720901 -1.119933 0.000000 0.000000 0.000000 -2.021637 -2.142271 0.354487 0.883447 -9.750971 -15.399251 -18.747565 -17.067721 -30.360891 -11.301397 -63.183034 -11.953575 0.000000 0.000000 0.000000 -4.391726 -0.923769 -0.644143 3.078467 20.657151 17.760273 -7.470104 -3.345022 50.589845 10.476874 40.163203 -10.649916 0.000000 0.000000 0.000000 
-3.997969 91.192841 19.386423 0.000000 0.000000 0.000000 -35.346926 -54.342928 -25.545705 -3.001323 14.797403 9.646027 32.754712 -1.655125 -10.844168 -3.610159 6.721653 4.469542 0.000000 0.000000 0.000000 -36.088862 -53.057326 -25.636866 12.258203 0.471725 -12.438904 26.311639 -7.890725 0.959868 -13.801117 -15.601419 6.295805 0.000000 0.000000 0.000000 -35.020443 -52.489457 -24.879884 -0.827940 -0.034602 -0.054419 16.203826 -3.265152 1.570260 -2.591002 -2.195959 -0.288491 0.000000 0.000000 0.000000 -1.932993 -1.772039 -0.011217 -0.069632 -1.744521 -1.109719 0.000000 0.000000 0.000000 -1.679947 -2.139621 0.373234 0.897199 -9.578721 -15.312569 -18.813584 -17.113560 -30.549944 -11.138808 -63.197439 -11.781935 0.000000 0.000000 0.000000 -4.496017 -0.916306 -0.685129 3.281904 20.649899 17.478837 -7.660104 -3.321661 50.981953 10.862403 40.006061 -11.086595 0.000000 0.000000 0.000000 
-3.433139 91.207298 20.059622 0.000000 0.000000 0.000000 -37.686207 -56.359337 -28.459616 -1.341175 15.459954 9.504246 30.984081 -1.948676 -11.009492 -5.018234 7.438017 4.416561 0.000000 0.000000 0.000000 -38.417639 -55.026852 -28.471628 11.076945 1.293748 -11.581737 28.273833 -9.277790 0.354792 -13.620690 -16.945817 3.751580 0.000000 0.000000 0.000000 -36.950374 -54.406343 -27.402562 -0.814922 -0.030433 -0.061515 16.104941 -3.284682 1.662183 -2.687263 -2.315128 -0.180926 0.000000 0.000000 0.000000 -1.693806 -1.747185 -0.000234 -0.213029 -1.784358 -1.088956 0.000000 0.000000 0.000000 -1.326158 -2.122053 0.406379 0.854712 -9.366126 -15.144023 -18.939437 -17.171324 -30.812790 -11.097798 -63.450948 -11.705338 0.000000 0.000000 0.000000 -4.453826 -0.849708 -0.666481 3.392740 20.592795 17.226990 -7.751911 -3.520207 51.276904 11.285295 40.093880 -11.545338 0.000000 0.000000 0.000000 
-2.811695 91.264488 20.650320 0.000000 0.000000 0.000000 -40.446587 -58.327411 -31.648713 0.596704 15.995497 8.860356 28.916798 -1.981765 -11.165205 -6.575169 8.185378 3.711730 0.000000 0.000000 0.000000 -41.012400 -56.914255 -31.446556 9.736302 1.492999 -10.503411 30.706352 -10.867742 0.243325 -14.846178 -18.381781 1.626641 0.000000 0.000000 0.000000 -39.207608 -56.372878 -30.080037 -0.809200 -0.038821 -0.050734 16.012550 -3.316568 1.443187 -2.760632 -2.478617 0.000030 0.000000 0.000000 0.000000 -1.423872 -1.716106 0.094880 -0.360944 -1.840712 -1.044714 0.000000 0.000000 0.000000 -0.970698 -2.108186 0.439264 0.754574 -9.126046 -14.955348 -19.127590 -17.199364 -31.093521 -11.153415 -63.825345 -11.695195 0.000000 0.000000 0.000000 -4.308376 -0.749530 -0.571081 3.432626 20.478382 16.985405 -7.775259 -3.813476 51.491563 11.672396 40.284575 -11.968901 0.000000 0.000000 0.000000 
-2.202203 91.338577 21.257805 0.000000 0.000000 0.000000 -43.637430 -60.117925 -35.170372 2.503155 16.578483 7.804709 27.182575 -1.716284 -11.310846 -8.299617 9.069357 2.839676 0.000000 0.000000 0.000000 -43.862515 -58.574726 -34.629715 8.253229 0.871506 -9.428612 33.807107 -12.253977 0.772841 -16.124431 -19.491384 0.661626 0.000000 0.000000 0.000000 -41.844324 -58.229582 -33.023043 -0.808966 -0.060727 -0.034786 15.887025 -3.391985 1.082084 -2.816434 -2.711654 0.243303 0.000000 0.000000 0.000000 -1.148741 -1.695175 0.243570 -0.492168 -1.909611 -0.966598 0.000000 0.000000 0.000000 -0.640522 -2.114334 0.446593 0.616610 -8.909155 -14.815681 -19.396214 -17.163965 -31.362057 -11.297288 -64.162326 -11.734393 0.000000 0.000000 0.000000 -4.092868 -0.653975 -0.416119 3.433837 20.312438 16.690407 -7.767733 -4.034271 51.651981 11.948526 40.414660 -12.287017 0.000000 0.000000 0.000000 
-1.639119 91.363792 21.845232 0.000000 0.000000 0.000000 -47.289207 -61.626092 -39.081465 4.048947 17.193828 6.638086 26.292176 -1.245413 -11.432821 -10.295532 10.057444 2.040010 0.000000 0.000000 0.000000 -47.091146 -60.028518 -38.163313 7.025295 -0.269277 -8.496953 37.256015 -13.269080 1.682965 -16.544822 -20.247338 0.810032 0.000000 0.000000 0.000000 -45.051101 -59.882222 -36.455264 -0.804842 -0.077302 -0.029607 15.724414 -3.501306 0.777148 -2.834473 -2.988450 0.515615 0.000000 0.000000 0.000000 -0.905422 -1.702857 0.410674 -0.585075 -1.976727 -0.859639 0.000000 0.000000 0.000000 -0.372264 -2.145003 0.415130 0.467229 -8.731794 -14.776527 -19.704162 -17.060619 -31.570173 -11.529293 -64.340805 -11.827127 0.000000 0.000000 0.000000 -3.875548 -0.602232 -0.235464 3.417081 20.128629 16.352122 -7.725268 -4.108440 51.773613 12.086177 40.422292 -12.461779 0.000000 0.000000 0.000000 
-1.138774 91.319489 22.379238 0.000000 0.000000 0.000000 -51.443544 -62.902094 -43.469322 5.078492 17.759180 5.646949 26.264336 -0.753265 -11.515471 -12.378239 11.042236 1.308445 0.000000 0.000000 0.000000 -50.741919 -61.253348 -42.123119 6.658701 -1.753646 -7.807945 40.098022 -14.225232 2.623058 -16.906467 -20.909489 1.124500 0.000000 0.000000 0.000000 -48.835371 -61.310141 -40.457567 -0.794152 -0.080242 -0.043363 15.541904 -3.629898 0.657119 -2.828462 -3.291887 0.788143 0.000000 0.000000 0.000000 -0.718769 -1.735348 0.558366 -0.620120 -2.037607 -0.732187 0.000000 0.000000 0.000000 -0.206892 -2.195508 0.349739 0.325662 -8.624313 -14.855108 -19.953305 -16.947844 -31.678267 -11.825061 -64.330956 -11.969308 0.000000 0.000000 0.000000 -3.653376 -0.597538 -0.056357 3.391384 19.962189 15.998707 -7.660900 -3.992668 51.816045 12.072351 40.314147 -12.482290 0.000000 0.000000 0.000000 
-0.697944 91.153351 22.879528 0.000000 0.000000 0.000000 -56.212375 -64.048508 -48.494210 5.623027 18.297467 4.972458 26.957529 -0.306297 -11.512813 -14.403988 12.041956 0.724255 0.000000 0.000000 0.000000 -54.935041 -62.404372 -46.673503 7.544484 -3.283847 -7.400822 41.966045 -15.288103 3.342867 -17.852931 -21.653335 1.087753 0.000000 0.000000 0.000000 -53.062742 -62.552252 -44.958091 -0.785799 -0.058209 -0.073315 15.313153 -3.762918 0.715910 -2.812920 -3.594342 1.039788 0.000000 0.000000 0.000000 -0.577259 -1.775782 0.653886 -0.589635 -2.092396 -0.602238 0.000000 0.000000 0.000000 -0.146273 -2.252830 0.261779 0.200596 -8.597240 -15.051497 -20.051535 -16.881359 -31.636699 -12.192061 -64.157784 -12.186755 0.000000 0.000000 0.000000 -3.397884 -0.616757 0.098387 3.367190 19.831511 15.647118 -7.608531 -3.711704 51.814587 11.948952 40.140554 -12.383168 0.000000 0.000000 0.000000 
-0.330906 90.881645 23.389833 0.000000 0.000000 0.000000 -61.702379 -65.129699 -54.248634 5.883719 18.829571 4.581988 27.945022 -0.018731 -11.368467 -16.244159 13.010404 0.215982 0.000000 0.000000 0.000000 -59.836774 -63.621436 -51.959192 9.545680 -4.600439 -7.258633 42.766195 -16.462311 3.734465 -19.286325 -22.432013 0.967833 0.000000 0.000000 0.000000 -57.778974 -63.691268 -49.972656 -0.779675 -0.013249 -0.099777 15.006457 -3.849320 0.819713 -2.738941 -3.854630 1.239819 0.000000 0.000000 0.000000 -0.481317 -1.814790 0.694023 -0.505238 -2.135858 -0.484510 0.000000 0.000000 0.000000 -0.172829 -2.301396 0.163657 0.095614 -8.628618 -15.317719 -19.947738 -16.866496 -31.440614 -12.615922 -63.866032 -12.487802 0.000000 0.000000 0.000000 -3.121217 -0.628997 0.200934 3.332245 19.780216 15.375488 -7.573247 -3.389900 51.788356 11.772430 39.999220 -12.216787 0.000000 0.000000 0.000000 
-0.035788 90.530426 23.796459 0.000000 0.000000 0.000000 -67.855833 -66.111846 -60.622621 6.032840 19.328296 4.298222 28.903298 0.078271 -11.081330 -17.812838 13.892557 -0.246453 0.000000 0.000000 0.000000 -65.340807 -64.774782 -57.843506 12.035268 -5.879951 -7.317889 42.865174 -17.748619 3.970854 -20.936345 -23.151295 0.954509 0.000000 0.000000 0.000000 -62.973709 -64.793169 -55.481142 -0.775306 0.034488 -0.111520 14.592224 -3.879900 0.823963 -2.600378 -4.053882 1.354786 0.000000 0.000000 0.000000 -0.427981 -1.836423 0.686020 -0.387495 -2.168582 -0.381148 0.000000 0.000000 0.000000 -0.249440 -2.339525 0.062801 0.009557 -8.730804 -15.559401 -19.717412 -16.907073 -31.125609 -13.063013 -63.507946 -12.846055 0.000000 0.000000 0.000000 -2.809680 -0.619088 0.232553 3.271926 19.810479 15.232141 -7.522714 -3.210576 51.728820 11.619119 40.047534 -12.050610 0.000000 0.000000 0.000000 
